<?xml version="1.0" standalone="no"?>
<!DOCTYPE svg PUBLIC "-//W3C//DTD SVG 20010904//EN"
 "http://www.w3.org/TR/2001/REC-SVG-20010904/DTD/svg10.dtd">
<svg version="1.0" xmlns="http://www.w3.org/2000/svg"
 width="8000.000000pt" height="8000.000000pt" viewBox="0 0 8000.000000 8000.000000"
 preserveAspectRatio="xMidYMid meet">

<g transform="translate(0.000000,8000.000000) scale(0.100000,-0.100000)"
fill="#000000" stroke="none">
<path d="M47548 54825 l2 -662 82 -69 c93 -79 316 -297 408 -399 449 -501 816
-1137 1051 -1823 l42 -123 -49 -51 c-253 -259 -615 -463 -1037 -583 -101 -29
-380 -93 -437 -100 -8 -1 -25 -5 -37 -9 l-23 -7 0 -535 c0 -335 4 -534 10
-534 45 0 359 47 495 75 439 88 883 258 1215 465 63 40 120 74 126 77 12 5 15
-12 44 -257 111 -945 75 -2085 -101 -3220 -59 -382 -182 -1025 -199 -1043 -4
-5 -36 24 -71 64 -109 122 -514 475 -974 848 -327 265 -450 362 -461 364 -5 1
-24 17 -44 34 l-35 33 -3 -713 -3 -712 58 -50 c250 -216 426 -427 608 -730
230 -382 316 -692 302 -1095 -9 -268 -39 -392 -187 -786 -131 -346 -458 -1166
-596 -1494 -59 -140 -107 -260 -107 -267 0 -7 -4 -13 -9 -13 -4 0 -7 -3 -6 -7
1 -5 -3 -17 -9 -28 -6 -11 -13 -29 -14 -40 -2 -11 -10 -26 -17 -33 -7 -8 -10
-18 -7 -23 4 -5 1 -9 -4 -9 -7 0 -11 -398 -11 -1282 l0 -1283 72 135 c260 488
797 1667 1191 2615 415 1000 833 2114 1037 2765 397 1266 634 2543 732 3955
18 247 17 1311 0 1545 -98 1330 -347 2316 -823 3260 -470 934 -1151 1710
-1988 2267 -85 57 -161 103 -168 103 -7 0 -13 4 -13 8 0 5 -10 13 -22 19 l-23
10 3 -662z"/>
<path d="M58210 32900 c-206 -25 -370 -71 -537 -150 -352 -167 -609 -469 -718
-845 -51 -177 -60 -253 -59 -495 0 -195 3 -239 23 -330 59 -277 168 -490 343
-676 246 -259 559 -396 943 -411 394 -16 695 91 927 329 100 102 84 114 118
-92 11 -69 23 -135 25 -147 l5 -23 240 0 240 0 0 755 0 755 -675 0 -675 0 0
-265 0 -265 331 0 332 0 -6 -28 c-12 -61 -51 -145 -92 -201 -117 -158 -310
-242 -560 -243 -133 0 -217 18 -335 74 -70 33 -100 56 -170 127 -71 71 -94
103 -133 181 -123 252 -141 589 -47 873 43 127 102 228 185 312 134 136 272
196 470 203 145 5 236 -12 343 -63 95 -45 198 -143 244 -231 l33 -64 368 0
c207 0 367 4 367 9 0 5 -11 46 -24 92 -126 433 -471 720 -971 805 -107 18
-429 27 -535 14z"/>
<path d="M52346 32890 c-558 -64 -904 -326 -967 -731 -35 -225 31 -444 181
-603 178 -189 420 -299 995 -455 378 -103 485 -144 522 -199 44 -66 40 -176
-8 -243 -70 -99 -273 -158 -498 -146 -191 11 -313 58 -404 157 -62 67 -92 133
-110 247 l-12 73 -367 0 c-344 0 -368 -1 -368 -17 0 -44 32 -222 51 -287 132
-447 489 -672 1099 -693 774 -27 1291 243 1376 716 26 146 12 309 -35 429 -62
156 -202 303 -365 382 -160 77 -404 158 -801 265 -223 60 -318 91 -388 128
-140 73 -184 200 -106 306 66 92 169 132 359 138 314 11 470 -90 524 -339 l6
-28 360 0 360 0 0 49 c0 69 -23 183 -54 265 -112 297 -405 503 -811 572 -108
18 -429 26 -539 14z"/>
<path d="M39618 32870 c-109 -17 -184 -41 -285 -91 -339 -167 -464 -516 -303
-848 41 -84 99 -176 157 -247 l34 -42 -103 -57 c-276 -154 -424 -290 -512
-470 -54 -110 -76 -204 -76 -330 0 -433 314 -755 796 -816 255 -32 568 22 799
138 78 40 199 115 231 144 l21 20 84 -105 84 -105 383 -1 c317 0 382 2 375 13
-4 8 -120 147 -256 310 l-249 297 42 47 c102 116 217 326 264 483 23 76 56
240 56 276 0 12 -53 14 -299 14 l-298 0 -12 -62 c-22 -116 -99 -313 -122 -313
-7 0 -349 397 -349 406 0 3 41 30 92 60 112 66 236 181 298 275 124 190 144
458 48 654 -49 102 -159 206 -278 263 -135 66 -233 87 -415 92 -82 2 -176 0
-207 -5z m297 -439 c155 -67 163 -279 17 -429 -48 -49 -128 -112 -143 -112
-13 0 -187 211 -205 249 -38 78 -28 181 23 242 63 74 200 96 308 50z m-117
-1479 c123 -147 222 -271 221 -277 -4 -17 -101 -85 -174 -121 -192 -94 -370
-81 -500 37 -78 72 -110 142 -110 239 1 93 29 154 109 234 53 53 200 157 221
155 5 0 110 -120 233 -267z"/>
<path d="M15760 31446 l0 -1386 658 0 c379 0 706 5 772 11 633 57 1018 336
1164 843 52 177 60 252 60 526 0 274 -8 349 -60 526 -118 410 -392 683 -801
799 -207 58 -195 58 -1025 62 l-768 4 0 -1385z m1435 770 c156 -46 276 -137
342 -261 86 -163 123 -443 93 -695 -41 -337 -179 -519 -447 -592 -68 -18 -114
-21 -365 -25 l-288 -5 0 802 0 802 303 -5 c248 -3 313 -7 362 -21z"/>
<path d="M19550 31445 l0 -1385 1165 0 1165 0 0 285 0 285 -780 0 -780 0 0
295 0 295 690 0 690 0 0 275 0 275 -690 0 -690 0 0 245 0 245 755 0 755 0 0
285 0 285 -1140 0 -1140 0 0 -1385z"/>
<path d="M22990 31445 l0 -1385 371 0 371 0 -6 708 c-3 419 -11 773 -18 869
-7 89 -10 159 -7 155 3 -4 70 -117 149 -252 143 -246 320 -532 708 -1145 l209
-330 417 -3 416 -2 0 1385 0 1385 -370 0 -370 0 0 -482 c0 -434 6 -712 25
-1143 l6 -140 -28 50 c-16 28 -73 129 -126 225 -130 236 -258 448 -612 1012
l-300 478 -417 0 -418 0 0 -1385z"/>
<path d="M26600 32550 l0 -280 430 0 430 0 0 -1105 0 -1105 385 0 385 0 0
1105 0 1105 435 0 435 0 0 280 0 280 -1250 0 -1250 0 0 -280z"/>
<path d="M30707 32818 c-48 -122 -1036 -2651 -1053 -2696 l-24 -62 402 2 401
3 85 253 84 252 501 -2 501 -3 91 -252 90 -253 416 0 416 0 -531 1385 -531
1385 -421 0 c-328 0 -423 -3 -427 -12z m572 -1213 c87 -247 156 -453 154 -457
-2 -5 -148 -8 -324 -8 -175 0 -319 3 -319 8 0 4 71 217 157 474 108 320 160
462 166 450 4 -9 79 -219 166 -467z"/>
<path d="M33590 31445 l0 -1385 1115 0 1115 0 0 300 0 300 -730 0 -730 0 0
1085 0 1085 -385 0 -385 0 0 -1385z"/>
<path d="M44220 31446 l0 -1386 658 0 c379 0 706 5 772 11 633 57 1018 336
1164 843 52 177 60 252 60 526 0 274 -8 349 -60 526 -118 410 -392 683 -801
799 -207 58 -195 58 -1025 62 l-768 4 0 -1385z m1435 770 c156 -46 276 -137
342 -261 86 -163 123 -443 93 -695 -41 -337 -179 -519 -447 -592 -68 -18 -114
-21 -365 -25 l-288 -5 0 802 0 802 303 -5 c248 -3 313 -7 362 -21z"/>
<path d="M48010 31445 l0 -1385 1165 0 1165 0 0 285 0 285 -780 0 -780 0 0
295 0 295 690 0 690 0 0 275 0 275 -690 0 -690 0 0 245 0 245 755 0 755 0 0
285 0 285 -1140 0 -1140 0 0 -1385z"/>
<path d="M54980 31445 l0 -1385 385 0 385 0 0 1385 0 1385 -385 0 -385 0 0
-1385z"/>
<path d="M60970 31445 l0 -1385 371 0 371 0 -6 708 c-3 419 -11 773 -18 869
-7 89 -10 159 -7 155 3 -4 70 -117 149 -252 143 -246 320 -532 708 -1145 l209
-330 417 -3 416 -2 0 1385 0 1385 -370 0 -370 0 0 -482 c0 -434 6 -712 25
-1143 l6 -140 -28 50 c-16 28 -73 129 -126 225 -130 236 -258 448 -612 1012
l-300 478 -417 0 -418 0 0 -1385z"/>
<path d="M45890 26975 c-146 -30 -298 -108 -409 -210 -102 -94 -192 -242 -237
-390 -25 -83 -28 -104 -28 -265 -1 -200 10 -258 75 -398 115 -249 331 -421
599 -478 99 -21 308 -18 406 6 253 60 458 232 569 474 48 105 66 187 72 329
l6 127 -472 0 -471 0 0 -90 0 -90 345 0 345 0 0 -28 c0 -15 -7 -55 -15 -87
-53 -205 -188 -355 -382 -422 -68 -24 -94 -27 -203 -27 -104 -1 -138 3 -200
22 -289 90 -464 361 -447 692 7 130 25 200 79 310 107 221 344 353 601 336
103 -7 215 -41 290 -90 61 -38 150 -132 178 -187 l19 -39 141 0 140 0 -48 92
c-110 209 -318 363 -555 412 -94 19 -305 20 -398 1z"/>
<path d="M37520 26100 l0 -870 420 0 420 0 0 95 0 95 -305 0 -305 0 0 775 0
775 -115 0 -115 0 0 -870z"/>
<path d="M28680 26095 l0 -865 115 0 115 0 0 637 c0 360 4 633 9 628 4 -6 134
-292 287 -638 l279 -627 84 2 83 3 282 632 281 631 3 -634 2 -634 115 0 115 0
0 865 0 865 -122 0 -123 -1 -315 -705 c-173 -388 -317 -707 -320 -709 -3 -2
-148 315 -322 703 l-316 707 -126 3 -126 3 0 -866z"/>
<path d="M33855 26948 c-3 -7 -129 -355 -281 -773 -152 -418 -291 -802 -310
-852 l-33 -93 122 0 122 0 70 195 70 195 379 -2 378 -3 42 -115 c23 -63 55
-150 70 -192 l28 -78 120 0 c110 0 120 2 116 18 -4 14 -592 1639 -613 1695 -6
15 -23 17 -141 17 -99 0 -136 -3 -139 -12z m294 -704 c83 -232 151 -427 151
-433 0 -13 -606 -16 -613 -3 -2 4 65 198 149 432 84 234 153 427 154 429 1 14
22 -43 159 -425z"/>
<path d="M41625 26948 c-3 -7 -129 -355 -281 -773 -152 -418 -291 -802 -310
-852 l-33 -93 122 0 122 0 70 195 70 195 379 -2 378 -3 42 -115 c23 -63 55
-150 70 -192 l28 -78 120 0 c110 0 120 2 116 18 -4 14 -592 1639 -613 1695 -6
15 -23 17 -141 17 -99 0 -136 -3 -139 -12z m294 -704 c83 -232 151 -427 151
-433 0 -13 -606 -16 -613 -3 -2 4 65 198 149 432 84 234 153 427 154 429 1 14
22 -43 159 -425z"/>
<path d="M50255 26948 c-3 -7 -129 -355 -281 -773 -152 -418 -291 -802 -310
-852 l-33 -93 122 0 122 0 70 195 70 195 379 -2 378 -3 42 -115 c23 -63 55
-150 70 -192 l28 -78 120 0 c110 0 120 2 116 18 -4 14 -592 1639 -613 1695 -6
15 -23 17 -141 17 -99 0 -136 -3 -139 -12z m294 -704 c83 -232 151 -427 151
-433 0 -13 -606 -16 -613 -3 -2 4 65 198 149 432 84 234 153 427 154 429 1 14
22 -43 159 -425z"/>
</g>
</svg>
